<mxfile host="Electron" modified="2024-02-02T09:55:06.706Z" agent="Mozilla/5.0 (Macintosh; Intel Mac OS X 10_15_7) AppleWebKit/537.36 (KHTML, like Gecko) draw.io/22.1.16 Chrome/120.0.6099.109 Electron/28.1.0 Safari/537.36" etag="PlUBUcfItmAbiT7aAYbo" version="22.1.16" type="device" pages="2">
  <diagram name="Target architecture" id="ZHI4TjtpeFQ8H5oUlvTr">
    <mxGraphModel dx="734" dy="804" grid="1" gridSize="10" guides="1" tooltips="1" connect="1" arrows="1" fold="1" page="1" pageScale="1" pageWidth="1654" pageHeight="1169" math="0" shadow="0">
      <root>
        <mxCell id="0" />
        <mxCell id="1" parent="0" />
        <mxCell id="8Oy3WxqOIeksSnKrKWsQ-1" value="Users" style="sketch=0;outlineConnect=0;fontColor=#232F3E;gradientColor=none;fillColor=#232F3D;strokeColor=none;dashed=0;verticalLabelPosition=bottom;verticalAlign=top;align=center;html=1;fontSize=12;fontStyle=0;aspect=fixed;pointerEvents=1;shape=mxgraph.aws4.users;fontFamily=Amazon Ember;" vertex="1" parent="1">
          <mxGeometry x="100" y="190" width="78" height="78" as="geometry" />
        </mxCell>
        <mxCell id="8Oy3WxqOIeksSnKrKWsQ-2" value="AppSync&lt;br&gt;Agent API" style="sketch=0;points=[[0,0,0],[0.25,0,0],[0.5,0,0],[0.75,0,0],[1,0,0],[0,1,0],[0.25,1,0],[0.5,1,0],[0.75,1,0],[1,1,0],[0,0.25,0],[0,0.5,0],[0,0.75,0],[1,0.25,0],[1,0.5,0],[1,0.75,0]];outlineConnect=0;fontColor=#232F3E;gradientColor=#FF4F8B;gradientDirection=north;fillColor=#BC1356;strokeColor=#ffffff;dashed=0;verticalLabelPosition=bottom;verticalAlign=top;align=center;html=1;fontSize=12;fontStyle=0;aspect=fixed;shape=mxgraph.aws4.resourceIcon;resIcon=mxgraph.aws4.appsync;fontFamily=Amazon Ember;" vertex="1" parent="1">
          <mxGeometry x="360" y="199.75" width="58.5" height="58.5" as="geometry" />
        </mxCell>
        <mxCell id="8Oy3WxqOIeksSnKrKWsQ-3" style="edgeStyle=orthogonalEdgeStyle;rounded=0;orthogonalLoop=1;jettySize=auto;html=1;entryX=0;entryY=0.5;entryDx=0;entryDy=0;entryPerimeter=0;" edge="1" parent="1" source="8Oy3WxqOIeksSnKrKWsQ-1" target="8Oy3WxqOIeksSnKrKWsQ-2">
          <mxGeometry relative="1" as="geometry" />
        </mxCell>
        <mxCell id="8Oy3WxqOIeksSnKrKWsQ-6" value="Natural Language Request" style="edgeLabel;html=1;align=center;verticalAlign=middle;resizable=0;points=[];" vertex="1" connectable="0" parent="8Oy3WxqOIeksSnKrKWsQ-3">
          <mxGeometry x="-0.1429" y="1" relative="1" as="geometry">
            <mxPoint y="-8" as="offset" />
          </mxGeometry>
        </mxCell>
        <mxCell id="8Oy3WxqOIeksSnKrKWsQ-8" style="edgeStyle=orthogonalEdgeStyle;rounded=0;orthogonalLoop=1;jettySize=auto;html=1;exitX=1;exitY=0.5;exitDx=0;exitDy=0;exitPerimeter=0;entryX=0;entryY=0.5;entryDx=0;entryDy=0;" edge="1" parent="1" source="8Oy3WxqOIeksSnKrKWsQ-4" target="8Oy3WxqOIeksSnKrKWsQ-7">
          <mxGeometry relative="1" as="geometry" />
        </mxCell>
        <mxCell id="8Oy3WxqOIeksSnKrKWsQ-4" value="AWS Lambda&lt;br&gt;LLM handler function" style="sketch=0;points=[[0,0,0],[0.25,0,0],[0.5,0,0],[0.75,0,0],[1,0,0],[0,1,0],[0.25,1,0],[0.5,1,0],[0.75,1,0],[1,1,0],[0,0.25,0],[0,0.5,0],[0,0.75,0],[1,0.25,0],[1,0.5,0],[1,0.75,0]];outlineConnect=0;fontColor=#232F3E;gradientColor=#F78E04;gradientDirection=north;fillColor=#D05C17;strokeColor=#ffffff;dashed=0;verticalLabelPosition=bottom;verticalAlign=top;align=center;html=1;fontSize=12;fontStyle=0;aspect=fixed;shape=mxgraph.aws4.resourceIcon;resIcon=mxgraph.aws4.lambda;fontFamily=Amazon Ember;" vertex="1" parent="1">
          <mxGeometry x="550.0000000000002" y="190" width="78" height="78" as="geometry" />
        </mxCell>
        <mxCell id="8Oy3WxqOIeksSnKrKWsQ-5" value="async Invoke" style="edgeStyle=orthogonalEdgeStyle;rounded=0;orthogonalLoop=1;jettySize=auto;html=1;exitX=1;exitY=0.25;exitDx=0;exitDy=0;exitPerimeter=0;entryX=0;entryY=0.25;entryDx=0;entryDy=0;entryPerimeter=0;" edge="1" parent="1" source="8Oy3WxqOIeksSnKrKWsQ-2" target="8Oy3WxqOIeksSnKrKWsQ-4">
          <mxGeometry x="0.0367" y="10" relative="1" as="geometry">
            <mxPoint x="-5" y="1" as="offset" />
          </mxGeometry>
        </mxCell>
        <mxCell id="8Oy3WxqOIeksSnKrKWsQ-7" value="Amazon Bedrock" style="shape=image;verticalLabelPosition=bottom;labelBackgroundColor=default;verticalAlign=top;aspect=fixed;imageAspect=0;image=data:image/png,iVBORw0KGgoAAAANSUhEUgAAAZYAAAGWCAYAAABb+KWWAAAAAXNSR0IArs4c6QAAAIRlWElmTU0AKgAAAAgABQESAAMAAAABAAEAAAEaAAUAAAABAAAASgEbAAUAAAABAAAAUgEoAAMAAAABAAIAAIdpAAQAAAABAAAAWgAAAAAAAABIAAAAAQAAAEgAAAABAAOgAQADAAAAAQABAACgAgAEAAAAAQAAAZagAwAEAAAAAQAAAZYAAAAAwH9AZwAAAAlwSFlzAAALEwAACxMBAJqcGAAAQABJREFUeAHtnQWcVdX2x9cQQ9fQOTQM3R0iHSr67AL17/M9uwPj+ezueO/5VLDjKaIyIA2C9NAwdEgMDUPHwH+tKxcvMzf2uWefe+q3/fiZO+fss+O7DrPu3it2UtJXr54mFBAAARAAARDQRCCfpnbQDAiAAAiAAAgECECx4EUAARAAARDQSgCKRStONAYCIAACIADFgncABEAABEBAKwEoFq040RgIgAAIgAAUC94BEAABEAABrQSgWLTiRGMgAAIgAAJQLHgHQAAEQAAEtBKAYtGKE42BAAiAAAhAseAdAAEQAAEQ0EoAikUrTjQGAiAAAiAAxYJ3AARAAARAQCsBKBatONEYCIAACIAAFAveARAAARAAAa0EoFi04kRjIAACIAACUCx4B0AABEAABLQSgGLRihONgQAIgAAIQLHgHQABEAABENBKAIpFK040BgIgAAIgAMWCdwAEQAAEQEArASgWrTjRGAiAAAiAABQL3gEQAAEQAAGtBKBYtOJEYyAAAiAAAlAseAdAAARAAAS0EoBi0YoTjYEACIAACECx4B0AARAAARDQSgCKRStONAYCIAACIADFgncABEAABEBAKwEoFq040RgIgAAIgAAUC94BEAABEAABrQSgWLTiRGMgAAIgAAJQLHgHQAAEQAAEtBKAYtGKE42BAAiAAAhAseAdAAEQAAEQ0EoAikUrTjQGAiAAAiAAxYJ3AARAAARAQCsBKBatONEYCIAACIAAFAveARAAARAAAa0EoFi04kRjIAACIAACUCx4B0AABEAABLQSgGLRihONgQAIgAAIQLHgHQABEAABENBKAIpFK040BgIgAAIgAMWCdwAEQAAEQEArASgWrTjRGAiAAAiAABQL3gEQAAEQAAGtBKBYtOJEYyAAAiAAAlAseAdAAARAAAS0EoBi0YoTjYEACIAACECx4B0AARAAARDQSgCKRStONAYCIAACIADFgncABEAABEBAKwEoFq040RgIgAAIgAAUC94BEAABEAABrQSgWLTiRGMgAAIgAAJQLHgHQAAEQAAEtBKAYtGKE42BAAiAAAhAseAdAAEQAAEQ0EoAikUrTjQGAiAAAiAAxYJ3wHYCBZLyUZnkwpRk+0gwABAAAR0ECuhoBG2AQDwE2qVUoscad6DeFWtQofwFKPvEMRqftZG+/X0V/bx1HR3OORlPs3gGBEDAZgJJSV+9etrmMaB7nxGoWLgoPd+sKw2p2YiSksKvU46cPEHp29bTN6xkRkPJ+OwNwXTdTgCKxe0SdNH4C+bLR3fWa0lPNO5IJQomK48cSkYZFSqCgCMIQLE4QgzeH0T/yrXojZbnUb0SZUxNNqhksF1mCiMeBgFLCUCxWIoXjdcrXppeZ4UyoEpt7TCgZLQjRYMgoIUAFIsWjGgkN4HiBQrS42yYv7t+KyqYL3/u29p/h5LRjhQNgkDcBKBY4kaHByMRuJ6N8i+wcb5SkWKRqlh6HUrGUrxoHARiEoBiiYkIFVQJiPvwW616ULuylVUfsbwelIzliNEBCOQhAMWSBwkuGCWg4j5stE0r6kPJWEEVbYJAXgJQLHmZ4IoigXjdhxWbt7QalIyleNG4zwlAsfj8BYh3+gPYfVi8vcy6Dwf7n7N7G2UdPUx9K6UGovCD1xPxE0omEZTRh58IQLH4Sdoa5qrbfTjryCF6ZPGvNGLD8sDoShRIpgur1qHLqteHktEgLzQBAnYQgGKxg7oL+9TtPnw8J4feXJ1BTy+bRQc5fUu4AiUTjgqugYDzCUCxOF9Gto9Qt/twOuf+umfBFFp9cJ/y3KBklFGhIgjYTgCKxXYROHcAut2HVx3YG1AoYzi5pJniBCUzJmsDfbNpJbIwmxEknvUsASgWz4o2/olVKlyMsw93IVmpRMo+bKT1AyeOB7a8ZOvrxKlTRh6NWdcJSmY0K8o3V2XQjF1bY44XFUDADwSgWPwgZcU5ivvwXfVaBVKxGMk+HKn506dP0ydslH+YjfPb2ePL6mK3knl40a/0UuZcq6eJ9kHA8QSgWBwvosQM0Ar34TsyJtPcPVmJmUCuXuxSMlfNHE1f8xYZCgj4mQAUi5+lz3O3wn1YViiyUnFKSaSSWZG9mxqPGeGUqWMcIGALASgWW7Db36m4D8uBW3fVb6kl+7CK+7D9syYSJXNB1dp0efUGlsXJlB/5Hu0+ftQJ08UYQMAWAjjz3hbs9nYqRwK/0LwrVWQjvY4Sj/uwjn7jaePAyeP0xcbMwP9WKZkyyYU9oViK8ZePruWqUqsyFahByRR+X4oGFLNwF47bOLh1JXv6zd+znabv2kJHck7GIxI840ECUCweFGqkKTnVfTjSeK2+bpWSSbJ64Ba2n8xn51xavV7AI/D8CjWoADt0qBRZsY7fvjGwBTpy8xo6eVqv95/KGFDHOQSwFeYcWVg2EvmmKeej6HIfloE+vmRGwANKt/uwZRAMNGx2JdNg9EeGgj8NDM2yqgWS8tGtdZvTg2ltqUqR4qb62Xgom15YMYc+WLeETrFnIIr/CECxeFjmut2HQ1FVGfVvThp5KPSSJz+HKhnJYaZS3KZYOperQv9p25vSSpZVmZ5ynUV7d9DN88bTPN4qQ/EXAbV1rr+YeGK24j68tN8QeqlFN9IRk+IJKHFMIrhdNnj6qDiedv4jw9La0ZQel2tXKjLz5mybmdHzysDx1M4ngRHqJAAbi06aDmhLt/uwA6aEIVhAIH9SEn3cri9dy44cVpaCbLN5jY9XaFCiDN06fyJhY8xK2s5pG4rFObIwNRLd2YdNDQYPO5qAOBd83WkQXVKtXsLGeQvbb4qyl9mQ2WMT1ic6so8AFIt97LX1LO7Dz7NxvlIRPe7D2gaGhhxJ4J3WPROqVIIQruP3VFyUJYAWxdsEYGNxsXzFfXhWr6vo4/b9tCiVDYf2u5gGhq5C4JrUNPo7rx7sKuJ1dpGiE4RdY0S/5glAsZhnmPAWxH1Y9sdnslJpV7ay6f4l+/BDi6ZR63Gfm24LDTiXQFV2I36fVyt2lw/b9qFyhYrYPQz0byEBbIVZCFd30+I+fHf9VvRYow5aPL1yZx+WSGsU7xJ4nY3oxQsmG57gET7hcxwHP87atY22sYu52Ggk1qUTuyn3qliDCuU39mckhZXKi7x1e9PccYbHggfcQcDYG+GOOXlylFZkH76Tsw/PsSn7sCeF5OBJtWTX30ur1zc0wl3HjtAzfHS0BDpGStciX0YksPIRdlsuzalsVMuQWo3pRT5iQA5/Q/EeASgWh8tU3IffaNWD+nNcio6SdcZ46qTswzrmhTaiE5A//EbKhKyNdAUfAbA3RjLNQ7yaeTlzHg1fv4y+63whdSlfVambfOzu/FDDtli1KNFyXyXYWBwqM3Effql5N1raf4gWpSK5nF7hPwD10z9yVEp7h+L31LBSeCVhxGAuRy73n/Z9TKUSCmknr256Tvk2cFRz6PVon6+o0YCw/RqNkHvvQbE4UHbiPrxqwI10f8M2WlLaS/bhpmNH0INsoD/I3zBR/EXgMt4Ck0BFlSKZiofO+YVy4sjxJXnjruZVzvL9u1W6CsS1GFF4So2ikiMIQLE4Qgx/DEK3+/Bq3r8eOG0kDfr1B9clRXSQWFw/lN6VUpXmIM4ct3Bur6Mm0t/LFxeJsFctvSuqjU21PdRzBgHYWBwgB9lvluzD9zVoTUn82WwR9+Gn2ej65uoMMpJ92HzPZkeO560gIGeqqJTvN6+mDE4cabZM27mZxmVtoD6VasZsqquiTSZmQ6jgKAJQLA4QhygV2fYyW3K7DxttD3mcjBJzfv2ybF8pz3FPKuUrtq3oKtKWimKpVawUFWZ3ZTOrJF1jRjv6CECx6GMZV0s1i5Wke3mlYrbM2b2N7mD34blwHzaL0lPP12GvQpUi56aM5VWGrpK+db1SU7JCr8X/BlZk71Gqj0ruIADFYrOcLqpal2QrLN4C9+F4yfnjuVIFCylNdMuRgySuw7rKjmOHaR+7KqvEtqiOUdfY0I71BKBYrGcctYfUoiWi3o90U9yHxYYithR4ekWihOtFC6j9Ez/IZ9jrLvJeqiiWogYj93WPE+3pJ6D21unvFy2eIaB6pngosNHsPnzPgim05uC+0Mv4DAJ5CBzlLyAqpXgB46leYrUrsVgq5egptTGqtIU6ziAAxeIMOSiNQtJfiEIZs01t/1qpUVTyNIFYkfPByUuCSglW1LUdVqFQUaXVivSvOsbgWPHT+QQQx+J8GQVG+NOWtdRkzAgoFZfIyynDXK94FILY+fopuAerzmtAFfUURBsOZas2i3ouIQDF4hJBbTycTSdPn3LJaDFMpxCQVCvbOSOxSrkqtaFKNaU6V3K6FpWylrdzIyW4VHkedZxJAIrFmXLBqEBAG4GZnO5epVzMHoqtOAuy2dKtfDWlGBbp57ddW812h+cdSACKxYFCwZBAQCeBdEWbnMSU/LtN70DAYrz9i8H+PQOHiamOLd7x4Dl7CECx2MMdvYJAwgj8sGUNiXu6SmmdUpGG8+mk+eOIrZKD6L7sOJAalSqr0lXAUUA8HFG8RwCKxXsyxYxA4BwCcmCX5AFTLZezfWRMt0uojIGDu8rzqZCTzruMBlaprdoNfbFxBWKwlGm5qyIUi7vkhdGCQFwEXuDTGiWXnGrpxRmRVw64ge6s15KKRAlgFBflBzjPndTtbCChZA6n2JcDwlC8SQBxLN6UK2YFAucQWLxvJ325KZOuTk0753q0X8rxKkROL32+WRcav30TzWRDe+iZ9535zPuecZx5L33+l487RoBvNPruvgfF4m75YfQgoEzg/oXTaAAfca2SZiW00SK8Krmwap3A/6HX4/284+hhGrZkRryP4zkXEMBWmAuEhCGCgA4CWRzPcvPc8TqairsN2Y4bOnssou3jJuiOB6FY3CEnjBIEtBD4jo34L66Yo6WteBp5nFcqOtPzxzMGPGM9ASgW6xmjBxBwFIFHFk+n4euXJXxM765eSM/ZqNQSPmEfdwgbi4+F76Spp5VMoWpFYh8hsIFzX61GVmfTortpzi90WM6nr9fCdFsqDby0Yi49vPhXlaqo4wECUCweEKIXpnBX/Vb01zrNYk7lVXZRfWDRtJj1UCE6AXE8vj1jEi3L3k2vtehOhaK4FEdvKfpdUV63zZ9IIzYsj14Rdz1FAFthnhInJgMCxgi8v2YRtR3/Bc2yIGfX1B2/U6txn0GpGBOJJ2pDsXhCjJgECMRPYOn+XdRp4ld07ax0Wqnh7PklHDNz2YyfqMfkb0nOEELxHwFshflP5pgxCIQl8MXGTE6zkkm9K6bS0FqNqX/lmsoxL3s4bczPnPdrOG95TeGVCoq/CUCx+Fv+mD0I5CEwfvtGjrTfSHKq5O8X/jXP/XAXao/+kLJPHA93C9d8SABbYT4UOqYMAioEcgzkFjNSV6Vv1HE3ASgWd8sPowcBEAABxxGAYnGcSDAgEAABEHA3ASgWd8sPowcBEAABxxGAYnGcSDAgEAABEHA3ASgWd8sPowcBEAABxxGAYnGcSDAgEAABEHA3ASgWd8sPowcBEAABxxGAYnGcSDAgEAABEHA3AUTeu1t+2kd/UDF6+jRJflwUEAABEMhLAIolLxPfXjnEKc5Lfv+Ob+ePiYMACOghgK0wPRzRCgiAAAiAwBkCUCx4FUAABEAABLQSgGLRihONgQAIgAAIQLHgHQABEAABENBKAIpFK040BgIgAAIgAMWCdwAEQAAEQEArASgWrTjRGAiAAAiAABQL3gEQAAEQAAGtBKBYtOJEYyAAAiAAAlAseAdAAARAAAS0EoBi0YoTjYEACIAACECx4B0AARAAARDQSgCKRStONAYCIAACIADFgncABEAABEBAKwGkzdeKE42BANHP3S6mYzk5rkdRIB++d7peiDZNAIrFJvDo1rsE6pUo493JYWYgoEAAX0kUIFlVpUmpctStfDWl5qWe1PdiSc6Xn2oXK+XFqWFOIOBLAlAsNoi9XKEi9G7rnrSgz7XUrHR5pRFIPan/Hj8nz3ultE2pRBk8r16VUr0yJcwDBHxPAFthCXwFCiTlozvqtaAnGnekUsmFDPecn/e8/1a3OV1VoyE9tWwmvbNmIZ04dcpwO054QFYp/2zSke5v0IZkXiggAALeIQDFkiBZDqpSm15r0Z3qath/F6X0asvz6O+sZO5bOJV+2rouQbPQ042sUoa370tpJcsabvBIzknDz+AB6wkcP+V+ZwXrKfmnBygWi2UtdpHXWQn0rFhDe0+ipEZ1HUwTt2+iexZMoaX7d2nvQ2eDOlYpKw/s1TkktKWBwPqD+127ctYwfTQRhgAUSxgoOi6JHeTpJp3o/2o3tXyrR5SW2F/+u24JPb70N9p17IiOKWhtw8wqJTiQfceP0qgta4K/4qdDCIzYsMwhI8EwnEIAikWzJAqyveCOei3p8UYd4rKjxDscsVPcwltjV7L95enls+jt1Qsc8S1SxypFmJw6fZpunjueDp48ES8iPGcBgfl7ttNLmfMsaBlNupkAFItG6V1YpQ693KIb2RnHIPaXV9iWc0udZvTAwmn049a1GmdorCkdqxTpcefRw3TDnF8ofdt6YwNAbcsI5LDTyKcbV9BdGZPpKOxelnF2a8NQLBokZ6UdJd7hiXL7oetFtthfdK1SZO7/+30V3Tp/oiO39yLJ5o75k2jb0UORbrv+evaJY7Rg7w7azVuTKCAQjgAUSzgqitfEjvIU21Fu1mhHkT+kb61aQHfWb0mXVq+vOJLI1YL2lw/Y/vJEAuwvOlcpt2VMCiiWyLNz5p1xWRto9cF9zhwcRgUCCSAAxRIHZLGj3F43/niUcF1m8F713ezZNX3XlsBt+dmlXFV6gz3KWqVUDPeI8rXQ+Ber7C9+X6UoCwMVQcAHBJKSvnr1tA/mqW2KF3A8itgwdNlRso4comFLptOI9csonCCSeORDajWm55p2oUpFimmZxxp22dUZ/+KXVcqpK+5V4t9g9EdYsSiRQiWvEsCKRVGyuu0oYvB8feV8em7FHDoUxdNJlM1wVjrf8hbZsLR2dE+D1lQ4vzmx6Yp/wSpF8eVBNRDwGQGsWGII3Ao7iiiJB9lja+Ph7Bi9572dWrQkvcSeZ5dpsL9I6+LdE4/9xS+rlFAJYMUSSgOfQSAyAXNffSO36/o7VsSj5LajxANJlNEVv/1Mb9tkf9G5ShEFe5vLPL7ikRmeAQG/EcCKJYzExY7yqqa8XtJ8LDtKmCEoXUq0/cWPq5RQQWDFEkoDn0EgMgGsWELY2GVHCRmCoY+Jsr/IKkXcqu9j+47ZTMRYpRgSMSqDgCsJYMXCYrMir5cZO0q8b5IV9pcRG5ZTx3KV48pEHDoPiZ6XQMfvNq8Oveyqz1ixuEpcGKyNBHy9YrHCjiK5kyTTcDAeJZGytcL+cmPtJqangFWKaYRowCICJQokU4sy5alO8dJUsVBRKlqgIOfYy6ED7Kn5++EDlJm9hzIP7AnkqrNoCJ5s1reKpRGfBfJt50Gmv4kH34ptRw7So0tmBFyDg9fs+ilKre34z7XHvxidjxdWKUbnjPrOJ1CXlcg1qWl0YdU61JxPZs2XJNbKyGX/8WM0defmQBaI73nFfRi50SLDOnPHl1thVYsUDxyHW75w0ZiAYlWQeJTXOB7l+RjxKLHasep+Mf4G9gjHv9yrIf7FyBi9uErBVpiRN8B5dTuVq8Knt3ag3hVTKSmGMok0+gMnjtO/1i6iVzPn045jhyNV8/11X65Ynm7amXQoFTvsKEbfWAm+fIxXUh+sXaI1/iXSOLBKiUQG1+0iUIW/SEpqJB2590oUTKYHGralv9VpTv/g3HtyPEUOH+mAci4BXyqWS6vVO5eCwd/stKMYHOrZ6qH2FznRsrXJ/GNnGw754MVVSsj08NGFBC7i7a4P2/ahFE4Yq7OIgnntjLK6kuPKNvNWOMqfBPL9+dEfn8omF6bi/FLEU8SOciOfCyL2CzuM8/GMOfczMu52PH6Zh8xHR5FVymUzfgoEbjrx9Eodc0Qb7iMgW8Dfd75Qu1IJJSHba/P59NY2FnxRC+3HbZ99p1gKckyG0SJ2lOeWz6b66R87wjhvdPy56wfjX2Q+Mi8zBzXJKqXx2BGudiPOzQe/u5/A88260LP8f7y2FCMEZFt9co/LqWv5qkYe83Rd3ykWo9KUP5xp6cMDdopoySKNtuuE+kH7i8xP5mmkYJVihBbqJpLA/Q3a0EO8WklkESeZH7sMpqalyiWyW8f2BcUSRTS9Jn8b2N6JJ1lklGYddytof5H5qpauk77GKkUVFuoljECfSqn0QvOuCesvtCM5FvyHLhdRqYKFQi/78jMUSxSxz96TFeWu924ZmW82u12igICTCKSw/XRE+34x41KsHHOt4qXoX216WdmFK9r2pVeYKySDQYIACBgi8EKzrlSxcHyH4W0/eogW7t1J4nwiGTlqFC0R8JyMxyZ7RY0G9PH6pTQua6Oh8XupMhSLA6SZn4O1/l63Of28dR1tOGT8jBYHTAFDAAFbCaSVTKGbDKYfkrOIPuFceP9Zt4Rm796WZ/wl2Xt0YOXa9HBaW2rKEfpGimRHbzr2EyOPeKoutsJsFme/SjVpSb8h9Far8+nl5t1sHg26BwF3EhiW1t6QB9jSfbuoxbhP6aa548IqFaEg271fbsqkFr98Gjg36HhOjjKcxmzEH1y1rnJ9r1WEYrFJog1LpNDobhdTevdLqCF/25LyFz4VEi6LNgkE3bqWgMSmGTlRdTxvUXWa+CUt279bac7inv/+mkXUc8q3rGyOKT0jlWQXwq8FiiXBki/D/wgkvcTiftdT/8q18vT+RsseFD0lXp5HcAEEfE3gcrZpJOdXi09btn8X/WXGj3SQUx0ZLTN2baWrZ6YrZzruWbEGVY7T5mN0bE6rDxtLgiQStKM82bhj1EjglmUq0NBajdn4tyxBI0M3ugn04D8o9UuU0d0s2otAQDIVq5RTnNNLFEM8SiXYfvq29fTu6oV0R/2WwUsRf0rW5L6Va3oiqDriJCPcgGKJAEbnZbGjvNqyu3KK/mebdgkELJr5B6Bz/GjLGAG4mxrjlajan7GhfgmvWMyWp5fPCnz5k3xhsUqPCtV9qViwFRbrzTBxP9SOksbnv6iWSkWK0bBG7VWrox4IgIACgf+uW6pQK3YVcUketWVN7Ipcw6+R+FAsSq+HsUpiR3mTbSWR7Cgqrd1TvxXVLFZSpSrqgAAIxCCwm5XBDE7Aqqv8yKEBKsWvW6JQLCpvh2IdsaPcXq8FrR5wQ2APtgAHWsVbCuUvQC/B/ThefHgOBM4hsHjfTtJ5asqCvTvOaT/SL3LUcWH+t+y34r8ZWyRhsaPI+QxB12Gz3ezgVPQTtm8y2wyeBwEQYAK7jh/VykFWQKqlOCsXMxnEVftxUj0oFpPSEDvKa2yY7xfGdTiepiUI6y0+le7pZbPowEnk44qHIZ4BgdwEkk3sHuRuS36XtC+q5QRH+PutQLHEKXGxo4jrsARBmdnyCu3+h81r6IFF02jtwX2hl/EZBEDAJIHUonrtlTWLlVIekR+/IEKxKL8ef1RUjUcx0qzs/96zYApN3vG7kcdQFwRAQJGAeGdJhP5uTVti57MbsUrZyqe0SvyM3woUiwGJW2FHeWLpb/TB2sVaDYsGpoSqIOALAvl56+oizt31EWcd1lEuqVZPqZnM7D1K9bxWCYpFQaKwoyhAQpWzBDYc2k/HfbivfhZAgj9UL1KcirCBPFZ5iLMUj9iwjHJMriB6cWaFtmUrxeoucH9WmKzJSg+6vBIUSxQBytL5OY6C121HuX/hVFrHf3xQvEmg75TvaDXsZAkT7tucGfw2dvOPVepxmp176remV1bOi1U14n1xHZaU+Kplkk89O6FYorwhEuBYUtMxo2JHuZvtKFNgR4lCHLdAwDiBkZtXKykWafn5Zl1o4b4dcbvyf9S2j/LZLBIyMHXnZuMT8sAT6j5zHpis0SnoUCryct0ydzy15DMdnKxUqvOJeXKsq2r5b9veVNuAZ4xqu6gHAkYJTOIva+sPqu0AiK1FzqW/lI+oMFJkpfJlx4F0ZWpD5cc+37jC9LabcmcOqwjFYpFAJB7llcx5VG/0R/QBn1DnVL8Q8cd/OK0dreg/lFQNkoJsQJXatKz/EHqySUdfRhZb9Nqg2TgJvLEqQ/lJiYb/mpXEB/zlSCWtfV8Ofp7b+2qSI4dVy4lTOfSmgTGptuuWetgKs0BSEo/iBjtKn0qpgZMr481nJGlnnuBYnutrNqK7MibTT4r5kyxAjiZ9TuA/7Fn5QMM2VI1X3iolidMv3VS7KV1doyFJKvxRW9ZSBqdpCZ55n8p5+iQz8cXsSdYqpaJKk+fUkWMvNh0+cM41P/0CxaJR2m6JR5Ftr9fYACknVuooEiw2qutgSmfFcicrGDgm6KCKNowQOMYrhPvYKebrToOMPBbwJpN/B7r+LUjnezjdy6OLpxsah9cqQ7FokKjYUR5fMoP+6+AtL5mmbHvd16ANPcYp+WU7QHeR7TE5Ne/FzLn0woq5vsuPpJsn2jNG4NvfV9Fl/L9R+4mxXmLXvnX+RG2BmLF7c2YNKBYTcnFTXi/Z9hK3THG5tLJge8xKumg7FoGb2VGmeenylr/nkcbx/ppF9A0rN78XGO/jfAPEjtJozHB6kHN7OTkXkGx7/a/zBTS2+18S+o8tuD32M2+RwXsszpcMjxkmsP/EMRo4bSTJLkKiy09sp7kzY1Kiu3Vkf1AsBsUidpSek7+lS2b86Ghbgmx7PRKHt5dBHDGrw3ssJiJU0ExgDQenns//RrOOHNLccuTmRKlc/tvPvnUvzk0GiiU3kQi/h8ajOD1ZpGx7Lek3hJ7lYDCztpSTnJpEtvzMlOD22HJ2T76A7TAoIGA1geXZu6nDhC9oCX8RtLq8u3ohXcxfNMWBAOUPAlAsMd4Et8SjyDRCt73idSEOxTGVA89ajvuUmv3yCY3L2hB6K67P2B6LCxseipOAuPu2n/Alvcd/+E+bzA8WbgjimiyrlDt4+8uPGYzDMQleg/E+SCLMz1Fb1tB9C5yf10u2ve5nb69HNXl7beNU33IuzBcbM89S6Tf1+0AA5et8SqYoMDMF3mNm6OFZIwTk5Mbb+Q//ZxwFLy72HcpVMfJ42LryZfNDzpL8GHuC7tWUhj9sRy6+mJT01atODQq3BGulwsVo60W3KLVd4ru36dDJE0p17aqk09tLtr3e5tMrn1w6M6JDQlEOinyscQe6l5P5JefPb3rakgnYLcGVp664V2m+DTjbApJQKqFKeCXJTCwJKwdWrm34gD75wvU5f9mSiPot/BklMgGsWCKzcfQdWTXI6sFIGpZoE5q2YzPdljGRlu3fHa0aHeZvgMM4+OvjdUvpndY9qTfbc8yU4PYYgivNUMSzqgQmcLZh+b80J5cdUKUWdS1XlVpzZL14LqYUKnK2mRz+kvX7kQO0MnsvSer7STs20YxdW7HldZZQ9A9QLNH5OPKubHtJji6zhnmZXLhtL5VJyzfyvlO/07499vyKOfTUslkqQ0AdEIibwD52S5at3tDtXjkdthgHDssZ9Uf4CxRK/ASgWOJnZ9uT5QsXMa1UZNvrHd72+keUbS+VCX7PKcvHcq4lHdtj4j0mW5UoIGAHATkALPvEcTu69lyf8ApzoUjlG/0WEwnuZNtLvL3u5dxKOoI7g9tjTceOoPFZG+MmKl42j7JBFAUEQMDdBKBYXCg/cSiQhHtGi2x7XTsrnc6b/E1MW4rRtqV+cHvsshk/0e9xKL6HF/0KL5t4wOMZEHAYASgWhwlEdTiSj0j12FPZ9np95XxqmD78nD1l1b6M1vuOt8fS0j/mRJRzlIMrZ7OB9CN24UQBARBwPwEoFhfL8Pb5k9jQGD3aN7jtJSscHdteqriMbI9JcNltnBEWBQRAwBsEoFhcLMfMA3t4JRL+5Dyrt71UsQW3xy6Nsj32bz6kSQ5ZQgEBEPAGASgWl8vx6eWzaHOIPSPR216q+MR7LNz2WMBg7/NDkVQZoh4IuIUAFItbJBVhnKGGfLu2vSIMLc/l0O2xYO6xhzh1jMQUoIAACHiHAOJYPCBLOTlvPwcrjjPh6ptIDLI9JrnHeldMpfHb43dPTuSY0RcIgIA6ASgWdVaOrukWpRIK0atKRc5dR+Q2BfLsLd6/iz7kI7tXZO8JFT0+e5wAFIvHBYzpJZ5AizIVEt+pQ3vsxbnk7qzXMpAtW5I3oviDAGws/pAzZgkCthEowMc6SMLUa1PTbBsDOk4sASiWxPJGbyDgWwLvt+lFDUuk+Hb+fpo4FIufpI25goCNBCRz8LedB1ERTjaK4m0CUCzeli9mBwKOItC4VDl6l8/xQfE2ASgWb8sXswMBxxEYWqsxXVezkePGhQHpIwDFoo8lWgIBEFAk8B6vWmBvUYTlwmpQLC4UGoYMAm4nAHuL2yUYffxQLNH54C4IgIBFBMTe8k6r8y1qHc3aSQDuGXbSR9+eJCAHlmUdPeTJucWaVPWiJejppp1jVTt7/4baTWjKzs306YblZ6/hg/sJQLG4X4amZnBljQaBc77T+dx6FD0ERnImZ8mH5tdSrlARuqt+K+Xpi71l7u4skmMgULxBAFthUeTYPqVSlLvuvlWhUFH6vvOF9EXHgfRhuz6UklzY3ROyePT1ipe2uAfvNP8gZ6wWRaFaYG9RJeWeelAsUWQ1ocdl9BX/4U0tWjJKLffdklXKsv5DaHC1uoHBVyxcjN7GXndYQUow31NNOtGSfkPC3sfFvARO8FHYV8z8mfYdP5r3ZoQrsLdEAOPSy1AsMQR3Of8RXjFgKD3D+8byzcrNRVYp33W+ILBKKcvbFaHlqtSGNLjqH4om9LqfP19UtQ6t6D+UHmvcgZLz5/czCsNz33Aom26cM87Qc2JvQXyLIWSOrew7G0usM+LDSaowf2sd1qg93cCBXY8umUHD1y8LV83R166q0ZDeatWDciuU0EG/36YnTWND6h4D3zRDn/fKZ9n2eof3/XtzZl6U+An8sGUNvcUZje/UaG8R+02bMhWpVvFSVKZgISrJ/x/OOUH7TxyntWzXkvT88hPFXgJJSV+9etreISS+9+xLbqfiBZPj7jhjz3a6e8EUmr5rS9xtJOpBWaX8i5P/Bbe9YvX75cZMumZWeqxqnrxf9MwXiPsbtDG1Qmkw+iNfG+9DX46CnNl4+vlXUtuy6vbKZXyGS7vxX5w906Y1K5IreOfgEt66ra1g69p25CCN50PvvtiUSRO2b6JTp333Jy5UBLZ8zp90ad8nbenZxk7rlShDZs7MqFykOMmyPa1kCs1lJbPfoUfrii3l524XU6uUisq0m5YuR4v27fSdh87FvA34U9fBNIi3v/LzH0Mz5Z3VC3y/6gvykz/qE/iU0CGcwkVW/iqlQuGiVIXtflKGt+9H/2zaiTqVq0JlFB1MSvCXxuZ8Js613OfQmo3p+Kkcfqd3UQ4UjAp+LXV8uWKpyooho8+1VJ5fYLPlaM5Jem3lfHp+xZzAiXlm29PxvNFVSu4+t3MMRuMxI3zxx7EufwMWx4W+lWvmxhD371ix5EUn9rvvu1yY90aCrsj22B3zJ9HYrA0J6tHf3fhyxXLg5HEavW0d9ahQ3bRykUOMupavFrC/iG1iIX/bt7OILeXnboMNrVJyj7d4gWQ6zf9N5G0Erxbx9nqySUf6rMMAasArT50FK5a8NCVGpXRyIepQtnLemwm4Iu7019RMI1kNyfYYVi/WQvfliiWIVPZ/5djUxxp1oFL80uso83lr7B4b7C9mVynBuZ9kV9EXM+fSU8tmkriNerGIt9ebLXtQjWLWuJFjxRL+rYnH3hK+JXNXZ+3aSoN+/cEXK3JzpOJ/2teKJYhNPE2e5liF/6vd1PT+erDNb39fRQ8unEYbD2cHL1n2U2wpsp0TzeNLpfOlvA89ZM5YWrB3h0p119WRba93Wp9PfSrVtHTsUCyR8dZkZS7b0KUV7SWRWzJ3Z0X2buo+6RvadeyIuYbwdFgCUCwhWJpwUjw5m7tnxRohV+P/aLX9BasUNdnIttcjae3owYZtTXl7qfVGBMUSnZTd9pbg6GR34bzJ3zjGNhoclxd++tLGEklwO44dDiTDk2/sbdiTKiVXEGGk5yJdt9L+Eo/HV7hxyipl0K8j6Qt2M/aiW6Zse/3c9WK6QIO3Vzh+4a7BxhKOyp/X7La3BEdShZ14ahUrRd9zbjcUvQTM+VXqHYtjWvtx61pqPHYE3b9wKu0/fsz0uMQ9+aN2fWle72uoS7mqptqTVUowx5eZrS+xpTyzbBa1Hv8ZZXhw60uCHMd2v4RGdrlIiy0lfes6U3LDw+cSkHxiCx3w3knGietxmuW5wtHwG7bCYkB0kv1FJXo+xnQCt5ew59oNc37xpEKRba9HOUuC2SDHIMcNh/YHnDFGbVlLp664N3g56k9shUXFE7gpMS2rBtxA1TjNvtFymuNRFvM7vPLAXhIPzxLsxdiAY9OalS5PSUlJRpsL2FkapH9Me32eccIwuCgPqEUsRWnA67fEuPf3+RPp3TWLtNlfLqteny6oUls5/gW2FLW3TIIcxUamw9vrGMcnvZw5j57j+CSxlaHoJXAPp3kxqlR2Hj0c8Fj8atNK2srR9bmLbG3JFvFDbEszEqMmXx6HsQ3uAV5FoeghgBWLQY4XVqlDr7ToRnX5G5KOknXkEA1bMj1i/jFZpbzNOb7M2ntklTKUVyle9PiSba+3NXp7jeGzaSSYbh2vVkILViyhNOL/LKlztl50SyDPl2orH65bElg5Hjx5IuYjxTlZrHzBuIm9PFXLIW439acP4IKsCixGPdhYYgDKfVu3/aVSkWJh7S9BW8rnHQeYUipiS3l2+WxqM/5zzykV2faSrNOS0l6HC/FGzsh78fRRNHDayDxKJfd7gN/jJyAZwyV5pGoRW+fNc8eTilKRNqWe1JfnVItkLkdmZVVasethKyw2ozw1JHBQ0rh8wsep6op/kXxe03peQRL/IhHvz/EfTB2rFK/aUrDtlee1dM2FG2s1UR7rm5wdWf6txVPkOTkqWfU0y+tS00j6QzFPAIrFBEOr7C9igzFTvBw9rzu3l2x73ZkxGanWzbxwBp4tz/aMzpxQUqVkcgp8I6uOcG3K8305ILahQtoe+XInOwUSdoBijgC2wszxCzy9lNN8957yP7qI00SsYU8VO4vYUtpP+IIe53NjvJSSRba9nuVV3FLe9tKRMFK8vYLbXji/I3FvbDfOq6fquTVs8XTTOb0kJ5i0o1q6V6imWhX1ohDAiiUKHKO3fuJYB8meegfnH3tcY/4xlXHIKuUF9mB6evksTykUmTu2vVTeAHfUacnp7FWK7AaIPVNHkXakPfH+ilWacvYN2Y5GMUcAisUcvzxPW2F/ydNJrgte9fgSb6+3NKa0x7ZXrhfHhl/rsExVymj+kqYrE4S0I+0N4RNgY5X6mrw9Y/Xj9ftQLBZJ2Ar7S+6henWVIttej3GQ430mT3IM8goNcgxew097CFQqrHYGku7jJ6S9IQpTNpPNQqF531SBYrFY1EH7iwREvtKiO8nplTqKV1cpXtj2asdnjkiwnlOLHNQrX3wkw2+iD+2VLw0qZTePT2dRbU9iYFDME1CTsvl+fN+CLvuLV1cpure9JLfXXXwujh2G+U879HfF+y7Buf/kc3f+vXZxwsZ7nG2BKiU5X36Vasp1CuVXa89LDi/KcCyoCMViAdRITYbaX57i819uNnj+ixdXKfIN1qrcXpHkgOt/EJDg3Pfb9CKxe0hSyESU7BNqSV3l3BadpSZnMVYpquNTacvPdeBubIP0ZRviVs4/1nLcZ4FkeipDEMOz16LnZdtrRf+hNIztKcmK3ygjsZLcXpKtudGYESQJI1HUCdzfsI1ybIl6q+Frbjp8IPyNXFd1nYkUbLYnH0OuUlTHp9KWn+tgxWKj9MX+Mm3n5kBW1ljDkC0dryzTdW97wdsr1tsT+77k1ZrBR/ZaXSQjsUrpcMZOFS7ZpMrzoXXE3tWe21MpEpSJYp4AFIt5hmhBkYBse8nq5AGN3l73LphKP2xZozgCVItEoHHJspFuab0+U1F5SRClZBy+PWOS6f6lHdWgzFm7t5nuDw0QQbHgLUgIAd3eXi9xSvvnkdJem+xUvbXMdjhv7/bA4XmlkmMnofxrnWb0X85qbMb1uAWf0SLtqBQ51E/Gh2KeAGws5hmihSgEZNtrTLdL6LsuF2o5J0W2vZqM/YT+sfQ3nJMShbtTb0mw4kjFFaYc7T2q6+BA/q545iN5v+R5aUelyLh0BWWq9OflOmrEvUwAc7OEgHwDDqa015Xb65LpPwZS2tvhQmwJJJ82Onz9MuWZS3biGb2upIYlUpSfkYpSX56T51WLkXGptunXetgK86vkLZz3YPb2ekPjSY6vcPpzOVMGJzlaKLQENi0OK3PYliGBpCpF3KFn976anuN34M3VC6K+B3Lk8V2cq09seSUKJqs0H6gj45FxoeghAMWihyNaYQKy7aXzJEc7gxzNCFSO0D15Wi0Q0Ew/Ks/KH9oyyYVVqia0zpNLZ1J690uU+xQl8XzzrnRvg9YBZ40x2zaQeHAFz7yXtPj9K9ck+VJj5Fji4ABkPCj6CECx6GPp25Z0BznKSY73cNS8W729ukz8ilaze7gTyiXV6tH/Ol/ghKGcMwbJAj6KbRoXsSIwUkRp3MzGePlfV5FxyHhQ9BGAYtHH0pct6fb2wraXf16j2+ZP4sDMqkrp7K2iEghWnjfRquZ92y4Ui29Fb27iCHI0xw9PE0nw47Wz0ml014spv6Lnlk5uOZy3TPrfdvSQzmbRFhOAYsFrYIiAFdtedy+YjDQshqTgncrjsjbS3+ZPoA/a9kn4pKRf6R9FPwEoFv1MPdsitr08K1pbJ/bhuqUk2Yzf5kPd8nHEvdVFYlXu4Ih+6RfFGgJQLNZw9VSrur29JMjxDt5fX8fnzqOAgBB4f80i2sZp/Ie370slC8aOyo+XmmQvHjr7F9c6hsQ770Q/B8WSaOIu6g/bXi4SlgeGKl6Arcftok/b96MO5apon9EszlN23eyxtpzRo30yDm8QisXhArJreLq3vV7m3F7PIbeXXeJ0Tb+SVaETu2vfVLsJPdm4I1U1EDkfaZJbOFX/k3ygGba+IhHSfx2KRT9TV7eoe9vLrUGOrhaiBwYvSuCTDcvp+pqN6KZaTeJawcgK5cP1f7TjlSMn3CJaKBa3SMricere9trA9hMJcsShWxYLzsPNizIQBSP/1+ITIHtVrEHdylejNI6ylzQvJTkaX9Lhn2ZjfPaJ44EtrhUcjS+pWSZs30TrYcOz7e2AYrENvXM6ltP6PmR3zxoajoOVkxyx7eUc2XplJKIkPuAU+vJ/aJGUNcghF0rEGZ+hWJwhB1tHcYSVgZEssJEGi5McI5HBdasIQKlYRdZcu0ibb46fJ57+jfeiZT873iLbXhdPH4WU9vECxHMg4DECUCweE2i803lw0TTad/yoocdl2+uZZbOo0ZgRsKUYIofKIOBtAlAs3pav8ux2HjtCjy/5Tbl+8CTHJ3CSozIzVAQBvxCAYvGLpBXm+f7aRbRw746oNbHtFRUPboIACDABKBa8BmcJSA6l2+ZPDLhvnr145gO2vXITwe8gAAKRCECxRCLj0+sz+YjWEbkM+dj28unLgGmDQJwE4G4cJzgvP/YQG/IHV61D+zhh390ZU+jHrWu9PF3MDQRAQDMBKBbNQL3QnBjy+039nhbv34XgMy8IFHMAgQQTgGJJMHC3dDdnT5ZbhopxRiGger6Jar0oXeEWCJwlAMVyFgU+gIA3CBTiQ7Muq16frklNox4VqitNqlGpsrRu0E00cvOaQG6u5dm7lZ5DJRAIRwCKJRwVXAMBFxKQRKJ31mtJ9zVsQ+UKFTE8g5qc6PGeBq0D//+ybQNJjNJcrFwNc8QDOPMe7wAIeILAoCq16R0+2ldHIlEB0rdyTepTKZWGr19G9y2cGnDk8AQoTCIhBOBunBDM6AQErCFQMF8+erd1T/qx62BtSiU4UklJfwMfuLWo3/XUoWzl4GX8BIGYBKBYYiJCBRBwJoFSfDb8+O6X0t/rNrd0gJL5enKPy+iKGg0s7QeNe4cAbCzekSVm4iMCcsjV+PP+Qm1SKiVk1oXYfvN5hwFUMCkffbZxRUL6RCfuJYAVi3tlh5H7lEAB/uP+fecLE6ZUgpjFJfmjdn2pd8XU4CX8BIGwBKBYwmLBRRBwLoEXm3el8/nUTztKAbbpfN1pINXg7TEUEIhEAIolEhlcBwEHEjif41Lurt/K1pGVTi5Mn7Tvb+sY0LmzCcDG4mz5YHQgcJaAeIC916YXibeW0bKL0/SM3rqOFu7bSbv5czIHUdYsVpJ68spHPL6MttmtQjW6vmYjUyePGp0D6ruHABSLe2SFkZ4hUJq9oV7g7aD31yyiRfyH0i/lxlpNqH6JMoamm5m9h4Ytnh5IJCrHIuQuEgRZuXAxerRRe/prnWYkW12q5akmnejLTZl04tQp1UdQzycE1N8inwDBNJ1N4Ep2ec0ccEPgj+C/5du7s4erbXQyz4fS2hpq781VGdR07Aj6YcsaCqdUgo1tO3qIbs+YRO3Gf06/Hz4QvBzzpwRjStoYFBDITQCKJTcR/O5IAnWKl6Zx3f9CX3QcSBUKFw2MsR1v4dxat4Ujx6t7UH0q1eStq1LKzd7P0fL3LJhCOWFWKZEakW2ytuM+p7UH90Wqkuf6LbzKQQGB3ASgWHITwe+OIiB2hYfT2tESjv7uxSlGcpdnm3UObOXkvu613y/npJKq5cN1S+i1lfNVq59Tb8exw3TBtB/owInj51yP9Et7Vu7wEItEx7/XoVj8K3vHz7xzuSq0oM919FyzLlSYA/TClZJsb3mrVY9wtzx1bUCVWkrz2Xn0cGClolQ5QqXMA3voueWzI9zNe3lAZbWx5X0SV7xKAIrFq5J18bzEOC/2k2nnX0GSzj1W+Qt/mx/o4T9utXgLrCIb2FXKi5lz6eDJEypVo9Z5c/UCEiWlUjryFwAUEAglAMUSSsPBn1OLliSJuPZ6uapGw4Bx/mbeuzfiAvsOJ2IsGmFV43ZmzUqXU5rCabanfLVppVLdWJWO5pwMGP1j1ZP7zUqpjU+lLdTxBgHv/6XyhpzoAj6Dfmn/IdTfo9/Mg8b5zzsOOGucNyK6VPZQ+ie7v3qxqBrtF7PxfeuRg9oQjNm2Qakt1fEpNYZKniAAxeIiMUoMw+huF9NPnCK9LntJeaHIKmxYFOO8kTneWb8lVS1S3MgjrqhbJrmQ0jhXHtirVE+1ksTAqJRSPD5xh0YBgSCB8BbR4F38tJzAyTiCywbyoU6SCPDN1Rn09LJZWvbULZ9omA66lKtK/2JbioodJczj51xawUfp3jJ3Am3R+I39nA5s/KVwPrV/pgdOqnlyqU7FSHuS/Vi2z1BAQAiovbFgZRmBjQYC0kIHkZw/Pz3QsC1dl9qIHl78q6tSa4hx/qXm3egmPkTKiB0ldP7Bz/LH7Fn2YHqJjdZejQA/nKNmjC9RIDmIRctP1fbEtgOlogW5ZxrBVpjNohwVIyo61vAqFSlGw9v3o5m9rqK2CTqbI9aYot2/OvUP4/z/1WlqWqlMyNrIkeWfBBSLV5WKsNyvGFPSsGRKNPSG76m2l604PsMDwAOuJQDFYrPoNhzKjjuYLXToEqg2i5WLnJdR8Uxkeuh9uz/XZpfZXzhy/jM+LCoYOR/vmMQN9vpZY6jP1O8MRYnH25/dz6lGwjdl76wqGm1M/fnce5WiOj6VtlDHGwSgWBwgR9nKepm3cmRLwUyRbaWhtRrTqgE30v0N2pBErdtdZAxinBePtt5hIueNjE/4SFR5wzHDfXWK4QpFI7rIX3Kp6SgSkDq4al2lplTHp9QYKnmCgP1/eTyB0dwkJEHgQ4t+pY4TvqQ5u7eZa4yfLsHH1r7UohunQbHXPTkYOf9MlMh51cmKcb77pG/o5rnjae/xo6qPeaKerAi2KTolPMR2t+IFCpqe9131WlJ5xZXvtJ2bTfeHBrxFAIrFQfKcsyeLOrByGTp7LGUdOWR6ZEH35J8T7J4sxvn/tOmtHDkfbaJiFH58yQxq8cunNH3XlmhVPX1vPNuTVIoog9dbnqdSNWKdhiVSaBin0VctE7ZvUq2Kej4hAMXiQEF/smE51U//iF7JnMeeTjmmRziA3ZOX8upFjrTV8W022oB0Gucn8h+sZj4wzkfjGbz3BZ97olpuqt2U7mvQWrX6OfUqFCpKP3UbHFj1nnMjwi+zdm2l9Yf2R7iLy34lAMXiUMlLvqcHF02jxmNGUDqf/Ge2BN2Txf4iJ//pLsHIeV3G+evYON97yv9ojYEU7rrn5KT2ZFWwiR09VMvLLboHVi75DZw22aJ0eZrb5xoSWaqWD9cvVa2Kej4iAMXicGHLH9ZBv/5Ag6aNpNUaIquD7sniQabDPVmM849oipwPNc5/vnGFwyWT2OGJHU5idYyUu+q3CtjZxAifL4qCEU+yd1qdT3N6X0PVi5ZQ7mILx2DJ6hoFBHITSEr66lVzrki5W8TvlhGQP+J31WtFjzfuoLxVEW0w8odc/jCIV9p2xUy2oe1ZETnvZDvKqSvuDZ1+xM8NRn9Eqy1Yack59cvYu87IiiI4yNxn3hfiAFvJ8XV+hepxnXkv7d48dxx76WHFEmSMn38SgGL5k4VrPkmcygvNuga2tMxGrsuk5VAnSQ0jKWJUAg11R87L2R+S7l2lbzuFZLdikbn345Mk07tfYieGQN9iW+k08Svbx4EBOJMAtsKcKZeoo5LVxQ1zfrHFPdkK4/wzrFicrlSiCiSBN8dmbaD31yxKYI95u8o+cYyuY89FFBCIRACKJRIZF1wPuiffYIF7cr1cBlzdxnmJnIdxPr6XTM6ylxWDHUVsPUNn/+KLjAd28PVKn1AsHpDkiBD35OM5etyTJbhS3JNTkgtrS2svNp2PeE/eb5Hzul+x4+yCLg4dEjSa6HJHxiTlA8ASPTb05xwCsLE4RxZaRiIrjTf4DHhdB4LlcFr//BpSw8gfwb/Nm0C/7nRvkKMTbCyhL0m5QkUonc/naZOA5KPyHvxt/gQY60MFgM8RCWDFEhGNO2+IN9JAdk2W/3W4J5tVKhI5/8SZyHk3KxUnvg3i6dVj8rf05Ub14Ml45iH9DPx1JJRKPPB8+gzOY/Go4MdsW08Ttm/U6p5sFJVEzv+dVyluDnKUM0kuqFqbLq+uJ7mjUYax6h/iQNprZqXTL2zUf4WDImUVo7PIsQ63zptI246aTzGkc1xoy9kEsBXmbPloGZ1u9+RYg5K09vctnOraDMShyqRvpVSS0xGNFKviWGKNocwZe9jf6janYiYTUUoy1CeXziTxQkMBAaMEoFiMEnNx/Xa8F/8W21/a8dktVhQxzn+8fhk9wKlo3JaB2KwyCeVpl2IJjkEcLq7jtD3XpaZRq5SKwcsxf+4/foxG8gplOMsQGYtj4kKFKASgWKLA8eqtIfxH53kOsJT0LrrKOrbtSGyNm+wookwurFqHLqten+JZmURiV58j752y/SdJJbtXqEZyCJhkuy7LW2WSiFTihiQeZROnZcnk815m8Qpl3t7tJO7EKCBglgAUi1mCLn1e/rg80bgj3VW/JR8Ilt/0LMTNWSL3JYJfEmg6tQRXJqJMJIrd6DaXyrzKj3yPdvvszBgVLqjjHwJQLP6RddiZ6nZPlnNkJPeYk5ITBpWJGOB1rkzCARW3aslIjQICfiYAxeJn6YfMXeJe5IAo2S7RUWbz1sqdGZNpLh9eZkcJKunkH9IAAAWQSURBVBMrVybh5nXVzNH09aaV4W7hGgj4hgAUi29EHXuikj35bk61/lgjfdmTJSvAI3FmT4494nNr2KVMgqN4mI+XNpraPvgsfoKAlwhAsXhJmprmots92Wj2ZCPTCCqTRGxzhRvXEbYnjeaYoTdXZdAMm/J3hRsXroGAnQSgWOyk7/C+dbsnr+KDyiSBogRvmilOUCZjOL7j299X0c98uqcEKaKAAAj8SQCK5U8W+BSBgG73ZDlqWRSMkcOwoEwiCAeXQcCBBKBYHCgUJw7JDvdkJymTn7aspcOc9wwFBEAgNgEoltiMUCOEgLgni/fYgCq1Q67G/1Hck8W4L0Z+KVAm8bPEkyDgFAJQLE6RhMvGMeCMe3I9Te7Jkpsqi3OMWR1nEg6zGODFZvINuwmLzQQrk3CUcA0E1AlAsaizQs1cBMQ9+a56rejxxnrck3M1b+mvQWUiBnhsc1mKGo37kAAUiw+FrnvKut2TdY8v2B6USZAEfoKAtQSgWKzl66vWdbsn64AXVCbY5tJBE22AgBoBKBY1TqhlgIBu92QDXQeqQpkYJYb6IKCXABSLXp5o7QwB3e7JscBCmcQihPsgkDgCUCyJY+3LnnS7J4dChDIJpYHPIOAcAlAszpGFp0eiyz0ZysTTrwkm5xECUCweEaQbphGve7Iok3TOLxbMzYU4EzdIG2P0MwEoFj9L36a5q7gnQ5nYJBx0CwIaCECxaICIJuIj0DalEj2S1o76V/7jiGBJrz8uJGswVibxccVTIGA3ASgWuyWA/imJGZRJLkx7+Zz40+ABAiDgegIFXD8DTMD1BESZ7GGlggICIOANAvm8MQ3MAgRAAARAwCkEoFicIgmMAwRAAAQ8QgCKxSOCxDRAAARAwCkEoFicIgmMAwRAAAQ8QgCKxSOCxDRAAARAwCkEoFicIgmMAwRAAAQ8QgCKxSOCxDRAAARAwCkEoFicIgmMAwRAAAQ8QgCKxSOCxDRAAARAwCkEoFicIgmMAwRAAAQ8QgCKxSOCxDRAAARAwCkEoFicIgmMAwRAAAQ8QgCKxSOCxDRAAARAwCkEoFicIgmMAwRAAAQ8QgCKxSOCxDRAAARAwCkEoFicIgmMAwRAAAQ8QgCKxSOCxDRAAARAwCkEoFicIgmMAwRAAAQ8QgCKxSOCxDRAAARAwCkEoFicIgmMAwRAAAQ8QgCKxSOCxDRAAARAwCkEoFicIgmMAwRAAAQ8QgCKxSOCxDRAAARAwCkEoFicIgmMAwRAAAQ8QgCKxSOCxDRAAARAwCkEoFicIgmMAwRAAAQ8QgCKxSOCxDRAAARAwCkEoFicIgmMAwRAAAQ8QgCKxSOCxDRAAARAwCkEoFicIgmMAwRAAAQ8QgCKxSOCxDRAAARAwCkEoFicIgmMAwRAAAQ8QgCKxSOCxDRAAARAwCkEoFicIgmMAwRAAAQ8QgCKxSOCxDRAAARAwCkEoFicIgmMAwRAAAQ8QgCKxSOCxDRAAARAwCkEoFicIgmMAwRAAAQ8QgCKxSOCxDRAAARAwCkEoFicIgmMAwRAAAQ8QgCKxSOCxDRAAARAwCkEoFicIgmMAwRAAAQ8QgCKxSOCxDRAAARAwCkEoFicIgmMAwRAAAQ8QgCKxSOCxDRAAARAwCkEoFicIgmMAwRAAAQ8QgCKxSOCxDRAAARAwCkEoFicIgmMAwRAAAQ8QgCKxSOCxDRAAARAwCkEoFicIgmMAwRAAAQ8QgCKxSOCxDRAAARAwCkEoFicIgmMAwRAAAQ8QgCKxSOCxDRAAARAwCkEoFicIgmMAwRAAAQ8QgCKxSOCxDRAAARAwCkEoFicIgmMAwRAAAQ8QgCKxSOCxDRAAARAwCkEoFicIgmMAwRAAAQ8QgCKxSOCxDRAAARAwCkE/h+SFJ+BeXvwkgAAAABJRU5ErkJggg==;" vertex="1" parent="1">
          <mxGeometry x="720" y="159" width="80" height="80" as="geometry" />
        </mxCell>
        <mxCell id="8Oy3WxqOIeksSnKrKWsQ-9" value="Amazon&lt;br&gt;DynamoDB&lt;br&gt;Conversation Metadata&lt;br&gt;tables" style="sketch=0;points=[[0,0,0],[0.25,0,0],[0.5,0,0],[0.75,0,0],[1,0,0],[0,1,0],[0.25,1,0],[0.5,1,0],[0.75,1,0],[1,1,0],[0,0.25,0],[0,0.5,0],[0,0.75,0],[1,0.25,0],[1,0.5,0],[1,0.75,0]];outlineConnect=0;fontColor=#232F3E;gradientColor=#4D72F3;gradientDirection=north;fillColor=#3334B9;strokeColor=#ffffff;dashed=0;verticalLabelPosition=bottom;verticalAlign=top;align=center;html=1;fontSize=12;fontStyle=0;aspect=fixed;shape=mxgraph.aws4.resourceIcon;resIcon=mxgraph.aws4.dynamodb;fontFamily=Amazon Ember;" vertex="1" parent="1">
          <mxGeometry x="430" y="10" width="78" height="78" as="geometry" />
        </mxCell>
        <mxCell id="8Oy3WxqOIeksSnKrKWsQ-10" value="Save messages" style="edgeStyle=orthogonalEdgeStyle;rounded=0;orthogonalLoop=1;jettySize=auto;html=1;exitX=0.75;exitY=0;exitDx=0;exitDy=0;exitPerimeter=0;entryX=0;entryY=0.75;entryDx=0;entryDy=0;entryPerimeter=0;" edge="1" parent="1" source="8Oy3WxqOIeksSnKrKWsQ-2" target="8Oy3WxqOIeksSnKrKWsQ-9">
          <mxGeometry x="-0.6218" y="-16" relative="1" as="geometry">
            <mxPoint as="offset" />
          </mxGeometry>
        </mxCell>
        <mxCell id="8Oy3WxqOIeksSnKrKWsQ-16" style="edgeStyle=orthogonalEdgeStyle;rounded=0;orthogonalLoop=1;jettySize=auto;html=1;exitX=0;exitY=0.5;exitDx=0;exitDy=0;exitPerimeter=0;" edge="1" parent="1" source="8Oy3WxqOIeksSnKrKWsQ-11" target="8Oy3WxqOIeksSnKrKWsQ-1">
          <mxGeometry relative="1" as="geometry">
            <Array as="points">
              <mxPoint x="230" y="389" />
              <mxPoint x="230" y="260" />
            </Array>
          </mxGeometry>
        </mxCell>
        <mxCell id="8Oy3WxqOIeksSnKrKWsQ-17" value="Web Socket&lt;br&gt;Token Streaming" style="edgeLabel;html=1;align=center;verticalAlign=middle;resizable=0;points=[];" vertex="1" connectable="0" parent="8Oy3WxqOIeksSnKrKWsQ-16">
          <mxGeometry x="0.3704" y="-2" relative="1" as="geometry">
            <mxPoint as="offset" />
          </mxGeometry>
        </mxCell>
        <mxCell id="8Oy3WxqOIeksSnKrKWsQ-11" value="Serverless&lt;br&gt;Web Socket&lt;br&gt;Subscriptions" style="sketch=0;points=[[0,0,0],[0.25,0,0],[0.5,0,0],[0.75,0,0],[1,0,0],[0,1,0],[0.25,1,0],[0.5,1,0],[0.75,1,0],[1,1,0],[0,0.25,0],[0,0.5,0],[0,0.75,0],[1,0.25,0],[1,0.5,0],[1,0.75,0]];outlineConnect=0;fontColor=#232F3E;gradientColor=#FF4F8B;gradientDirection=north;fillColor=#BC1356;strokeColor=#ffffff;dashed=0;verticalLabelPosition=bottom;verticalAlign=top;align=center;html=1;fontSize=12;fontStyle=0;aspect=fixed;shape=mxgraph.aws4.resourceIcon;resIcon=mxgraph.aws4.appsync;fontFamily=Amazon Ember;" vertex="1" parent="1">
          <mxGeometry x="360" y="360" width="58.5" height="58.5" as="geometry" />
        </mxCell>
        <mxCell id="8Oy3WxqOIeksSnKrKWsQ-12" style="edgeStyle=orthogonalEdgeStyle;rounded=0;orthogonalLoop=1;jettySize=auto;html=1;exitX=0;exitY=0.25;exitDx=0;exitDy=0;exitPerimeter=0;entryX=0.25;entryY=0;entryDx=0;entryDy=0;entryPerimeter=0;" edge="1" parent="1" source="8Oy3WxqOIeksSnKrKWsQ-9" target="8Oy3WxqOIeksSnKrKWsQ-2">
          <mxGeometry relative="1" as="geometry" />
        </mxCell>
        <mxCell id="8Oy3WxqOIeksSnKrKWsQ-13" value="Read&lt;br&gt;History" style="edgeLabel;html=1;align=center;verticalAlign=middle;resizable=0;points=[];" vertex="1" connectable="0" parent="8Oy3WxqOIeksSnKrKWsQ-12">
          <mxGeometry x="-0.3539" y="-1" relative="1" as="geometry">
            <mxPoint y="13" as="offset" />
          </mxGeometry>
        </mxCell>
        <mxCell id="8Oy3WxqOIeksSnKrKWsQ-14" style="edgeStyle=orthogonalEdgeStyle;rounded=0;orthogonalLoop=1;jettySize=auto;html=1;exitX=0.5;exitY=1;exitDx=0;exitDy=0;exitPerimeter=0;entryX=0.5;entryY=0;entryDx=0;entryDy=0;entryPerimeter=0;" edge="1" parent="1" source="8Oy3WxqOIeksSnKrKWsQ-2" target="8Oy3WxqOIeksSnKrKWsQ-11">
          <mxGeometry relative="1" as="geometry" />
        </mxCell>
        <mxCell id="8Oy3WxqOIeksSnKrKWsQ-15" value="Publish Updates" style="edgeLabel;html=1;align=center;verticalAlign=middle;resizable=0;points=[];" vertex="1" connectable="0" parent="8Oy3WxqOIeksSnKrKWsQ-14">
          <mxGeometry x="0.2727" y="-1" relative="1" as="geometry">
            <mxPoint as="offset" />
          </mxGeometry>
        </mxCell>
        <mxCell id="8Oy3WxqOIeksSnKrKWsQ-19" style="edgeStyle=orthogonalEdgeStyle;rounded=0;orthogonalLoop=1;jettySize=auto;html=1;entryX=1;entryY=0.75;entryDx=0;entryDy=0;entryPerimeter=0;" edge="1" parent="1" target="8Oy3WxqOIeksSnKrKWsQ-2">
          <mxGeometry relative="1" as="geometry">
            <mxPoint x="550" y="249" as="sourcePoint" />
          </mxGeometry>
        </mxCell>
        <mxCell id="8Oy3WxqOIeksSnKrKWsQ-20" value="Multiple async&lt;br&gt;updates" style="edgeLabel;html=1;align=center;verticalAlign=middle;resizable=0;points=[];" vertex="1" connectable="0" parent="8Oy3WxqOIeksSnKrKWsQ-19">
          <mxGeometry x="-0.105" y="-1" relative="1" as="geometry">
            <mxPoint y="20" as="offset" />
          </mxGeometry>
        </mxCell>
        <mxCell id="8Oy3WxqOIeksSnKrKWsQ-21" value="&lt;pre class=&quot;unlimited-height-code language-js&quot;&gt;&lt;code class=&quot;language-js&quot;&gt;# Example GRAPHQL query sent to Appsync &lt;span class=&quot;token keyword&quot;&gt;from&lt;/span&gt; the Lambda &lt;span class=&quot;token keyword&quot;&gt;function&lt;/span&gt;&lt;br/&gt;mutation &lt;span class=&quot;token function&quot;&gt;SendConversationStreamingUpdate&lt;/span&gt; &lt;span class=&quot;token punctuation&quot;&gt;(&lt;/span&gt;&lt;span class=&quot;token parameter&quot;&gt;tokens&lt;span class=&quot;token operator&quot;&gt;:&lt;/span&gt; String&lt;span class=&quot;token operator&quot;&gt;!&lt;/span&gt;&lt;/span&gt;&lt;span class=&quot;token punctuation&quot;&gt;)&lt;/span&gt; &lt;span class=&quot;token punctuation&quot;&gt;{&lt;/span&gt;&lt;br/&gt;    &lt;span class=&quot;token function&quot;&gt;agentPublishMetadata&lt;/span&gt;&lt;span class=&quot;token punctuation&quot;&gt;(&lt;/span&gt;&lt;span class=&quot;token parameter&quot;&gt;data&lt;span class=&quot;token operator&quot;&gt;:&lt;/span&gt; &lt;span class=&quot;token punctuation&quot;&gt;{&lt;/span&gt; agentPartialMessage&lt;span class=&quot;token operator&quot;&gt;:&lt;/span&gt; tokens &lt;span class=&quot;token punctuation&quot;&gt;}&lt;/span&gt;&lt;/span&gt;&lt;span class=&quot;token punctuation&quot;&gt;)&lt;/span&gt; &lt;span class=&quot;token punctuation&quot;&gt;{&lt;/span&gt;&lt;br/&gt;        conversationId&lt;br/&gt;        timestamp&lt;br/&gt;        event &lt;span class=&quot;token punctuation&quot;&gt;{&lt;/span&gt;&lt;br/&gt;            agentPartialMessage&lt;br/&gt;       &lt;span class=&quot;token punctuation&quot;&gt;}&lt;/span&gt;&lt;br/&gt;    &lt;span class=&quot;token punctuation&quot;&gt;}&lt;/span&gt;&lt;br/&gt;&lt;span class=&quot;token punctuation&quot;&gt;}&lt;/span&gt;&lt;/code&gt;&lt;/pre&gt;" style="text;html=1;align=center;verticalAlign=middle;resizable=0;points=[];autosize=1;strokeColor=none;fillColor=none;" vertex="1" parent="1">
          <mxGeometry x="45" y="493" width="490" height="180" as="geometry" />
        </mxCell>
      </root>
    </mxGraphModel>
  </diagram>
  <diagram id="1Nz_TpW2DK4ZbYbrcztf" name="Page-2">
    <mxGraphModel dx="734" dy="804" grid="1" gridSize="10" guides="1" tooltips="1" connect="1" arrows="1" fold="1" page="1" pageScale="1" pageWidth="1654" pageHeight="1169" math="0" shadow="0">
      <root>
        <mxCell id="0" />
        <mxCell id="1" parent="0" />
        <mxCell id="N3svVQL8yQ4FTHJlv7Ti-7" style="edgeStyle=orthogonalEdgeStyle;rounded=0;orthogonalLoop=1;jettySize=auto;html=1;exitX=0.5;exitY=0;exitDx=0;exitDy=0;exitPerimeter=0;entryX=0.5;entryY=1;entryDx=0;entryDy=0;" edge="1" parent="1" source="N3svVQL8yQ4FTHJlv7Ti-1" target="N3svVQL8yQ4FTHJlv7Ti-6">
          <mxGeometry relative="1" as="geometry" />
        </mxCell>
        <mxCell id="N3svVQL8yQ4FTHJlv7Ti-1" value="Conversation Table" style="sketch=0;points=[[0,0,0],[0.25,0,0],[0.5,0,0],[0.75,0,0],[1,0,0],[0,1,0],[0.25,1,0],[0.5,1,0],[0.75,1,0],[1,1,0],[0,0.25,0],[0,0.5,0],[0,0.75,0],[1,0.25,0],[1,0.5,0],[1,0.75,0]];outlineConnect=0;fontColor=#232F3E;gradientColor=#4D72F3;gradientDirection=north;fillColor=#3334B9;strokeColor=#ffffff;dashed=0;verticalLabelPosition=bottom;verticalAlign=top;align=center;html=1;fontSize=12;fontStyle=0;aspect=fixed;shape=mxgraph.aws4.resourceIcon;resIcon=mxgraph.aws4.dynamodb;fontFamily=Amazon Ember;" vertex="1" parent="1">
          <mxGeometry x="240" y="200" width="78" height="78" as="geometry" />
        </mxCell>
        <mxCell id="N3svVQL8yQ4FTHJlv7Ti-11" style="edgeStyle=orthogonalEdgeStyle;rounded=0;orthogonalLoop=1;jettySize=auto;html=1;exitX=0.5;exitY=0;exitDx=0;exitDy=0;exitPerimeter=0;entryX=0.5;entryY=1;entryDx=0;entryDy=0;" edge="1" parent="1" source="N3svVQL8yQ4FTHJlv7Ti-2" target="N3svVQL8yQ4FTHJlv7Ti-10">
          <mxGeometry relative="1" as="geometry" />
        </mxCell>
        <mxCell id="N3svVQL8yQ4FTHJlv7Ti-2" value="Events Table" style="sketch=0;points=[[0,0,0],[0.25,0,0],[0.5,0,0],[0.75,0,0],[1,0,0],[0,1,0],[0.25,1,0],[0.5,1,0],[0.75,1,0],[1,1,0],[0,0.25,0],[0,0.5,0],[0,0.75,0],[1,0.25,0],[1,0.5,0],[1,0.75,0]];outlineConnect=0;fontColor=#232F3E;gradientColor=#4D72F3;gradientDirection=north;fillColor=#3334B9;strokeColor=#ffffff;dashed=0;verticalLabelPosition=bottom;verticalAlign=top;align=center;html=1;fontSize=12;fontStyle=0;aspect=fixed;shape=mxgraph.aws4.resourceIcon;resIcon=mxgraph.aws4.dynamodb;fontFamily=Amazon Ember;" vertex="1" parent="1">
          <mxGeometry x="360" y="200" width="78" height="78" as="geometry" />
        </mxCell>
        <mxCell id="N3svVQL8yQ4FTHJlv7Ti-3" value="Agents Table" style="sketch=0;points=[[0,0,0],[0.25,0,0],[0.5,0,0],[0.75,0,0],[1,0,0],[0,1,0],[0.25,1,0],[0.5,1,0],[0.75,1,0],[1,1,0],[0,0.25,0],[0,0.5,0],[0,0.75,0],[1,0.25,0],[1,0.5,0],[1,0.75,0]];outlineConnect=0;fontColor=#232F3E;gradientColor=#4D72F3;gradientDirection=north;fillColor=#3334B9;strokeColor=#ffffff;dashed=0;verticalLabelPosition=bottom;verticalAlign=top;align=center;html=1;fontSize=12;fontStyle=0;aspect=fixed;shape=mxgraph.aws4.resourceIcon;resIcon=mxgraph.aws4.dynamodb;fontFamily=Amazon Ember;" vertex="1" parent="1">
          <mxGeometry x="480" y="200" width="78" height="78" as="geometry" />
        </mxCell>
        <mxCell id="N3svVQL8yQ4FTHJlv7Ti-4" value="Actions Table" style="sketch=0;points=[[0,0,0],[0.25,0,0],[0.5,0,0],[0.75,0,0],[1,0,0],[0,1,0],[0.25,1,0],[0.5,1,0],[0.75,1,0],[1,1,0],[0,0.25,0],[0,0.5,0],[0,0.75,0],[1,0.25,0],[1,0.5,0],[1,0.75,0]];outlineConnect=0;fontColor=#232F3E;gradientColor=#4D72F3;gradientDirection=north;fillColor=#3334B9;strokeColor=#ffffff;dashed=0;verticalLabelPosition=bottom;verticalAlign=top;align=center;html=1;fontSize=12;fontStyle=0;aspect=fixed;shape=mxgraph.aws4.resourceIcon;resIcon=mxgraph.aws4.dynamodb;fontFamily=Amazon Ember;" vertex="1" parent="1">
          <mxGeometry x="600" y="200" width="78" height="78" as="geometry" />
        </mxCell>
        <mxCell id="N3svVQL8yQ4FTHJlv7Ti-5" value="Events Table" style="sketch=0;points=[[0,0,0],[0.25,0,0],[0.5,0,0],[0.75,0,0],[1,0,0],[0,1,0],[0.25,1,0],[0.5,1,0],[0.75,1,0],[1,1,0],[0,0.25,0],[0,0.5,0],[0,0.75,0],[1,0.25,0],[1,0.5,0],[1,0.75,0]];outlineConnect=0;fontColor=#232F3E;gradientColor=#4D72F3;gradientDirection=north;fillColor=#3334B9;strokeColor=#ffffff;dashed=0;verticalLabelPosition=bottom;verticalAlign=top;align=center;html=1;fontSize=12;fontStyle=0;aspect=fixed;shape=mxgraph.aws4.resourceIcon;resIcon=mxgraph.aws4.dynamodb;fontFamily=Amazon Ember;" vertex="1" parent="1">
          <mxGeometry x="720" y="200" width="78" height="78" as="geometry" />
        </mxCell>
        <mxCell id="N3svVQL8yQ4FTHJlv7Ti-6" value="GetConversation" style="rounded=1;whiteSpace=wrap;html=1;" vertex="1" parent="1">
          <mxGeometry x="219" y="70" width="120" height="60" as="geometry" />
        </mxCell>
        <mxCell id="N3svVQL8yQ4FTHJlv7Ti-9" style="edgeStyle=orthogonalEdgeStyle;rounded=0;orthogonalLoop=1;jettySize=auto;html=1;exitX=1;exitY=0.5;exitDx=0;exitDy=0;exitPerimeter=0;entryX=0;entryY=0.5;entryDx=0;entryDy=0;" edge="1" parent="1" source="N3svVQL8yQ4FTHJlv7Ti-8" target="N3svVQL8yQ4FTHJlv7Ti-6">
          <mxGeometry relative="1" as="geometry" />
        </mxCell>
        <mxCell id="N3svVQL8yQ4FTHJlv7Ti-8" value="AWS AppSync" style="sketch=0;points=[[0,0,0],[0.25,0,0],[0.5,0,0],[0.75,0,0],[1,0,0],[0,1,0],[0.25,1,0],[0.5,1,0],[0.75,1,0],[1,1,0],[0,0.25,0],[0,0.5,0],[0,0.75,0],[1,0.25,0],[1,0.5,0],[1,0.75,0]];outlineConnect=0;fontColor=#232F3E;gradientColor=#FF4F8B;gradientDirection=north;fillColor=#BC1356;strokeColor=#ffffff;dashed=0;verticalLabelPosition=bottom;verticalAlign=top;align=center;html=1;fontSize=12;fontStyle=0;aspect=fixed;shape=mxgraph.aws4.resourceIcon;resIcon=mxgraph.aws4.appsync;fontFamily=Amazon Ember;" vertex="1" parent="1">
          <mxGeometry x="100" y="70" width="58.5" height="58.5" as="geometry" />
        </mxCell>
        <mxCell id="N3svVQL8yQ4FTHJlv7Ti-10" value="GetConversationEvents" style="rounded=1;whiteSpace=wrap;html=1;" vertex="1" parent="1">
          <mxGeometry x="360" y="70" width="120" height="60" as="geometry" />
        </mxCell>
      </root>
    </mxGraphModel>
  </diagram>
</mxfile>
